<svg xmlns="http://www.w3.org/2000/svg" viewBox="0 0 560 350" font-family="Inter,system-ui,sans-serif">
<rect width="560" height="350" rx="10" fill="#ffffff" stroke="#dbe4e8"/>
<rect width="560" height="34" rx="10" fill="#eef3f5"/><rect y="24" width="560" height="10" fill="#eef3f5"/>
<circle cx="20" cy="17" r="5" fill="#d8dfe4"/><circle cx="38" cy="17" r="5" fill="#d8dfe4"/><circle cx="56" cy="17" r="5" fill="#d8dfe4"/>
<rect x="180" y="9" width="200" height="16" rx="8" fill="#ffffff" stroke="#dbe4e8"/>

<text x="20" y="72" font-size="15" font-weight="600" fill="#122a3a">Agent pipeline</text>
<rect x="20" y="86" width="160" height="110" rx="6" fill="#f8fafb" stroke="#dbe4e8"/><text x="32" y="108" font-size="11" font-weight="600" fill="#122a3a">Research</text><rect x="32" y="120" width="64" height="16" rx="8" fill="#e1f2f3"/><text x="40" y="132" font-size="9" fill="#0e7c86">RUNNING</text><rect x="32" y="146" width="120" height="7" rx="3" fill="#e3ecef"/><rect x="32" y="162" width="96" height="7" rx="3" fill="#e3ecef"/>
<rect x="200" y="86" width="160" height="110" rx="6" fill="#f8fafb" stroke="#dbe4e8"/><text x="212" y="108" font-size="11" font-weight="600" fill="#122a3a">Synthesis</text><rect x="212" y="120" width="72" height="16" rx="8" fill="#fdf3e0"/><text x="220" y="132" font-size="9" fill="#b07817">APPROVAL</text><rect x="212" y="146" width="120" height="7" rx="3" fill="#e3ecef"/><rect x="212" y="162" width="88" height="7" rx="3" fill="#e3ecef"/>
<rect x="380" y="86" width="160" height="110" rx="6" fill="#f8fafb" stroke="#dbe4e8"/><text x="392" y="108" font-size="11" font-weight="600" fill="#122a3a">Delivery</text><rect x="392" y="120" width="52" height="16" rx="8" fill="#eaf6ee"/><text x="400" y="132" font-size="9" fill="#2c7a4b">DONE</text><rect x="392" y="146" width="112" height="7" rx="3" fill="#e3ecef"/><rect x="392" y="162" width="80" height="7" rx="3" fill="#e3ecef"/>
<text x="20" y="232" font-size="12" font-weight="600" fill="#122a3a">Cost ledger</text>
<rect x="20" y="244" width="520" height="24" rx="4" fill="#f8fafb" stroke="#dbe4e8"/><text x="30" y="260" font-size="10" fill="#5d6f7b">H-QB · QBR composer</text><text x="470" y="260" font-size="10" font-weight="600" fill="#0e7c86">$0.14</text>
<rect x="20" y="274" width="520" height="24" rx="4" fill="#f8fafb" stroke="#dbe4e8"/><text x="30" y="290" font-size="10" fill="#5d6f7b">H-MW · Weekly digest</text><text x="470" y="290" font-size="10" font-weight="600" fill="#0e7c86">$0.06</text>
<rect x="20" y="304" width="520" height="24" rx="4" fill="#f8fafb" stroke="#dbe4e8"/><text x="30" y="320" font-size="10" fill="#5d6f7b">R-CI · Competitor scan</text><text x="470" y="320" font-size="10" font-weight="600" fill="#0e7c86">$0.11</text>

</svg>