<svg xmlns="http://www.w3.org/2000/svg" viewBox="0 0 560 350" font-family="Inter,system-ui,sans-serif">
<rect width="560" height="350" rx="10" fill="#ffffff" stroke="#dbe4e8"/>
<rect width="560" height="34" rx="10" fill="#eef3f5"/><rect y="24" width="560" height="10" fill="#eef3f5"/>
<circle cx="20" cy="17" r="5" fill="#d8dfe4"/><circle cx="38" cy="17" r="5" fill="#d8dfe4"/><circle cx="56" cy="17" r="5" fill="#d8dfe4"/>
<rect x="180" y="9" width="200" height="16" rx="8" fill="#ffffff" stroke="#dbe4e8"/>

<rect x="16" y="50" width="120" height="284" rx="6" fill="#122a3a"/>
<rect x="30" y="66" width="70" height="9" rx="4" fill="#5fc9d3"/>
<rect x="30" y="94" width="90" height="7" rx="3" fill="#3d566b"/><rect x="30" y="112" width="76" height="7" rx="3" fill="#3d566b"/><rect x="30" y="130" width="84" height="7" rx="3" fill="#3d566b"/><rect x="30" y="148" width="66" height="7" rx="3" fill="#3d566b"/>
<text x="152" y="72" font-size="15" font-weight="600" fill="#122a3a">Portfolio health</text>
<rect x="152" y="86" width="120" height="64" rx="6" fill="#f0faf5" stroke="#bfe6d2"/><text x="164" y="112" font-size="22" font-weight="600" fill="#0e7c86">92</text><text x="164" y="132" font-size="10" fill="#5d6f7b">Verdant Labs</text>
<rect x="282" y="86" width="120" height="64" rx="6" fill="#fdf6ec" stroke="#f0dcb8"/><text x="294" y="112" font-size="22" font-weight="600" fill="#b07817">64</text><text x="294" y="132" font-size="10" fill="#5d6f7b">Northwind</text>
<rect x="412" y="86" width="120" height="64" rx="6" fill="#fdf0ef" stroke="#f0c5c2"/><text x="424" y="112" font-size="22" font-weight="600" fill="#b0392e">41</text><text x="424" y="132" font-size="10" fill="#5d6f7b">Vassal Co</text>
<text x="152" y="182" font-size="12" font-weight="600" fill="#122a3a">Renewal forecast</text>
<polyline points="152,290 210,270 260,278 320,240 380,246 440,214 532,196" fill="none" stroke="#0e7c86" stroke-width="3"/>
<polyline points="152,300 210,296 260,290 320,286 380,272 440,266 532,258" fill="none" stroke="#c9d6dc" stroke-width="2"/>
<rect x="152" y="312" width="80" height="10" rx="5" fill="#e3ecef"/><rect x="240" y="312" width="60" height="10" rx="5" fill="#e3ecef"/>

</svg>