<svg xmlns="http://www.w3.org/2000/svg" viewBox="0 0 560 350" font-family="Inter,system-ui,sans-serif">
<rect width="560" height="350" rx="10" fill="#ffffff" stroke="#dbe4e8"/>
<rect width="560" height="34" rx="10" fill="#eef3f5"/><rect y="24" width="560" height="10" fill="#eef3f5"/>
<circle cx="20" cy="17" r="5" fill="#d8dfe4"/><circle cx="38" cy="17" r="5" fill="#d8dfe4"/><circle cx="56" cy="17" r="5" fill="#d8dfe4"/>
<rect x="180" y="9" width="200" height="16" rx="8" fill="#ffffff" stroke="#dbe4e8"/>

<text x="20" y="72" font-size="15" font-weight="600" fill="#122a3a">Competitive dossier</text>
<rect x="20" y="86" width="330" height="248" rx="6" fill="#f8fafb" stroke="#dbe4e8"/>
<rect x="36" y="104" width="140" height="12" rx="4" fill="#122a3a"/>
<rect x="36" y="130" width="290" height="7" rx="3" fill="#e3ecef"/><rect x="36" y="146" width="270" height="7" rx="3" fill="#e3ecef"/><rect x="36" y="162" width="286" height="7" rx="3" fill="#e3ecef"/>
<rect x="36" y="186" width="110" height="18" rx="9" fill="#e1f2f3"/><text x="46" y="199" font-size="9" fill="#0e7c86">PRICING SHIFT</text>
<rect x="154" y="186" width="96" height="18" rx="9" fill="#fdf3e0"/><text x="164" y="199" font-size="9" fill="#b07817">MESSAGING</text>
<rect x="36" y="220" width="290" height="7" rx="3" fill="#e3ecef"/><rect x="36" y="236" width="250" height="7" rx="3" fill="#e3ecef"/><rect x="36" y="252" width="280" height="7" rx="3" fill="#e3ecef"/><rect x="36" y="268" width="200" height="7" rx="3" fill="#e3ecef"/>
<text x="368" y="104" font-size="12" font-weight="600" fill="#122a3a">Signal impact</text>
<rect x="368" y="116" width="172" height="52" rx="6" fill="#fff" stroke="#dbe4e8"/><text x="380" y="140" font-size="20" font-weight="600" fill="#0e7c86">8.6</text><text x="380" y="158" font-size="9" fill="#5d6f7b">CTV spend velocity</text>
<rect x="368" y="176" width="172" height="52" rx="6" fill="#fff" stroke="#dbe4e8"/><text x="380" y="200" font-size="20" font-weight="600" fill="#b07817">6.2</text><text x="380" y="218" font-size="9" fill="#5d6f7b">Rival repositioning</text>
<rect x="368" y="236" width="172" height="98" rx="6" fill="#122a3a"/><text x="380" y="258" font-size="10" font-weight="600" fill="#5fc9d3">BATTLECARD</text><rect x="380" y="270" width="140" height="6" rx="3" fill="#3d566b"/><rect x="380" y="284" width="128" height="6" rx="3" fill="#3d566b"/><rect x="380" y="298" width="136" height="6" rx="3" fill="#3d566b"/><rect x="380" y="312" width="100" height="6" rx="3" fill="#3d566b"/>

</svg>