<svg xmlns="http://www.w3.org/2000/svg" viewBox="0 0 560 350" font-family="Inter,system-ui,sans-serif">
<rect width="560" height="350" rx="10" fill="#ffffff" stroke="#dbe4e8"/>
<rect width="560" height="34" rx="10" fill="#eef3f5"/><rect y="24" width="560" height="10" fill="#eef3f5"/>
<circle cx="20" cy="17" r="5" fill="#d8dfe4"/><circle cx="38" cy="17" r="5" fill="#d8dfe4"/><circle cx="56" cy="17" r="5" fill="#d8dfe4"/>
<rect x="180" y="9" width="200" height="16" rx="8" fill="#ffffff" stroke="#dbe4e8"/>

<text x="20" y="66" font-size="14" font-weight="600" fill="#122a3a">Competitive dossier</text>
<rect x="440" y="52" width="100" height="20" rx="10" fill="#e1f2f3"/><text x="452" y="66" font-size="9" font-weight="600" fill="#0e7c86">6 SIGNALS NEW</text>

<rect x="20" y="80" width="330" height="254" rx="6" fill="#ffffff" stroke="#dbe4e8"/>
<text x="36" y="104" font-size="13" font-weight="600" fill="#122a3a">Rival repositions on outcome pricing</text>
<text x="36" y="120" font-size="9" fill="#8a99a3">RISK: HIGH · UPDATED TODAY</text>
<rect x="36" y="130" width="90" height="17" rx="8" fill="#e1f2f3"/><text x="45" y="142" font-size="8.5" font-weight="600" fill="#0e7c86">PRICING SHIFT</text>
<rect x="132" y="130" width="80" height="17" rx="8" fill="#fdf3e0"/><text x="141" y="142" font-size="8.5" font-weight="600" fill="#b07817">MESSAGING</text>
<rect x="218" y="130" width="72" height="17" rx="8" fill="#fdf0ef"/><text x="227" y="142" font-size="8.5" font-weight="600" fill="#b0392e">LANDMINE</text>
<text x="36" y="168" font-size="10.5" font-weight="600" fill="#122a3a">Strategic move of the month</text>
<text x="36" y="184" font-size="9.5" fill="#5d6f7b">Moved enterprise tier to usage pricing and</text>
<text x="36" y="197" font-size="9.5" fill="#5d6f7b">cut the self-serve floor to $499 per month.</text>
<text x="36" y="221" font-size="10.5" font-weight="600" fill="#122a3a">Messaging drift</text>
<text x="36" y="237" font-size="9.5" fill="#5d6f7b">Homepage now leads with "outcomes, not</text>
<text x="36" y="250" font-size="9.5" fill="#5d6f7b">seats." Third revision in two quarters.</text>
<text x="36" y="274" font-size="10.5" font-weight="600" fill="#122a3a">Talent signals</text>
<text x="36" y="290" font-size="9.5" fill="#5d6f7b">14 open GTM roles, incl. VP Pricing. Hiring</text>
<text x="36" y="303" font-size="9.5" fill="#5d6f7b">concentrated in enterprise sales.</text>
<text x="36" y="322" font-size="9" font-weight="600" fill="#0e7c86">12 sources cited →</text>

<text x="368" y="100" font-size="11" font-weight="600" fill="#122a3a">Signal impact</text>
<rect x="368" y="110" width="172" height="44" rx="6" fill="#ffffff" stroke="#dbe4e8"/><text x="380" y="130" font-size="17" font-weight="600" fill="#0e7c86">8.6</text><text x="416" y="130" font-size="9.5" fill="#5d6f7b">Pricing restructure</text><rect x="380" y="138" width="120" height="5" rx="2.5" fill="#e3ecef"/><rect x="380" y="138" width="103" height="5" rx="2.5" fill="#0e7c86"/>
<rect x="368" y="160" width="172" height="44" rx="6" fill="#ffffff" stroke="#dbe4e8"/><text x="380" y="180" font-size="17" font-weight="600" fill="#b07817">6.2</text><text x="416" y="180" font-size="9.5" fill="#5d6f7b">Rival repositioning</text><rect x="380" y="188" width="120" height="5" rx="2.5" fill="#e3ecef"/><rect x="380" y="188" width="74" height="5" rx="2.5" fill="#e0a33a"/>
<rect x="368" y="212" width="172" height="122" rx="6" fill="#122a3a"/>
<text x="380" y="234" font-size="9.5" font-weight="600" fill="#5fc9d3">BATTLECARD · AUTO-UPDATED</text>
<text x="380" y="254" font-size="10" font-weight="600" fill="#ffffff">How we win vs. Rival Co</text>
<text x="380" y="272" font-size="8.5" fill="#a7b8c4">Kill point: no per-seat minimums</text>
<text x="380" y="286" font-size="8.5" fill="#a7b8c4">Objection: "cheaper at low volume"</text>
<text x="380" y="300" font-size="8.5" fill="#a7b8c4">Proof: 95% retention cohort data</text>
<rect x="380" y="310" width="92" height="16" rx="8" fill="#0e7c86"/><text x="391" y="321" font-size="8.5" font-weight="600" fill="#ffffff">Push to sales →</text>

</svg>